<?xml version="1.0" encoding="UTF-8" standalone="no"?>
<svg
   xmlns:dc="http://purl.org/dc/elements/1.1/"
   xmlns:cc="http://creativecommons.org/ns#"
   xmlns:rdf="http://www.w3.org/1999/02/22-rdf-syntax-ns#"
   xmlns:svg="http://www.w3.org/2000/svg"
   xmlns="http://www.w3.org/2000/svg"
   xmlns:xlink="http://www.w3.org/1999/xlink"
   id="svg3995"
   version="1.1"
   viewBox="0 0 108 108"
   height="108"
   width="108">
  <defs
     id="defs3989">
    <linearGradient
       id="linearGradient870">
      <stop id="stop864"
         offset="0"
         style="stop-color:#cd6a40;stop-opacity:1" />
      <stop id="stop866"
         offset="0.5"
         style="stop-color:#c85050;stop-opacity:1" />
      <stop id="stop868"
         offset="1"
         style="stop-color:#d15781;stop-opacity:1" />
    </linearGradient>
    <linearGradient id="linearGradient923"
       xlink:href="#linearGradient870"
       x1="27"
       y1="54"
       x2="81"
       y2="54"
       gradientUnits="userSpaceOnUse" />

  </defs>
  <metadata
     id="metadata3992">
    <rdf:RDF>
      <cc:Work
         rdf:about="">
        <dc:format>image/svg+xml</dc:format>
        <dc:type
           rdf:resource="http://purl.org/dc/dcmitype/StillImage" />
        <dc:title></dc:title>
      </cc:Work>
    </rdf:RDF>
  </metadata>
  <g id="layer1"
     style="display:inline;fill:none;stroke-width:4;stroke-miterlimit:4;stroke-dasharray:none;paint-order:normal" >
    <rect id="rect4560"
       x="28.75"
       y="28.75"
       rx="10"
       ry="10"
       width="50.5"
       height="50.5"
       style="display:inline;fill:url(#linearGradient845);fill-opacity:1;stroke:url(#linearGradient923);stroke-width:4;stroke-linecap:butt;stroke-miterlimit:4;stroke-dasharray:none;stroke-opacity:1;paint-order:normal" />
    <path id="path903"
       d="M 47.335786,69.435786 38.564214,60.664214 A 4.8284271,4.8284271 67.5 0 1 37.15,57.25 v -8 a 2.4852814,2.4852814 157.5 0 1 4.242641,-1.757359 l 5.028932,5.028932 a 5.8196001,5.8196001 79.502004 0 1 1.201225,6.482495 L 46.4,61.75 49.145932,60.527202 a 5.8196001,5.8196001 10.497996 0 1 6.482495,1.201225 l 5.028932,5.028932 a 2.4527003,2.4527003 112.76607 0 1 -1.7571,4.186916 l -8.150345,-0.0757 a 4.8925668,4.8925668 22.766072 0 1 -3.414128,-1.432789 z"
       style="display:inline;fill:none;fill-opacity:1;stroke:url(#linearGradient923);stroke-width:4;stroke-linecap:round;stroke-linejoin:round;stroke-miterlimit:4;stroke-dasharray:none;stroke-opacity:1;paint-order:normal" />
    <path id="path915"
       d="m 70.95,48.75 v 10.1 a 2.4852814,2.4852814 157.5 0 1 -4.242641,1.757359 L 47.492641,41.392641 A 2.4852814,2.4852814 112.5 0 1 49.25,37.15 h 10.1"
       style="display:inline;fill:none;stroke:url(#linearGradient923);stroke-width:4;stroke-linecap:round;stroke-linejoin:round;stroke-miterlimit:4;stroke-dasharray:none;stroke-opacity:1;paint-order:normal" />
  </g>
</svg>
